# xmcd CD database file
#
# Track frame offsets:
#	219
#	16895
#	37154
#	52745
#	71748
#
# Disc length: 1194 seconds
#
# Revision: 0
# Processed by: cddbd v1.5.2PL0 Copyright (c) Steve Scherf et al.
# Submitted via: CDex 1.70beta2
#
DISCID=3b04a805
DTITLE=Carrie Underwood - Carnival Ride (Christmas CD)
DYEAR=2008
DGENRE=Country
TTITLE0=Hark! The Herald Angels Sing
TTITLE1=The First Noel
TTITLE2=What Child Is This
TTITLE3=Do You Hear What I Hear
TTITLE4=O Holy Night
EXTD=YEAR: 2008
EXTT0=
EXTT1=
EXTT2=
EXTT3=
EXTT4=
PLAYORDER=
